# File produced by Open Asset Import Library (http://www.assimp.sf.net)
# (assimp v3.2.202087883)

mtllib model_normalized.mtl

# 145 vertex positions
v 0.207302 -0.103211 0.089294
v 0.229044 -0.103211 -0.284707
v 0.229044 -0.103211 0.089294
v 0.207302 -0.103211 -0.284707
v 0.229044 -0.075162 0.089294
v 0.207302 -0.075162 0.089294
v 0.229044 -0.220890 0.089294
v 0.207302 -0.075162 -0.284707
v 0.185561 -0.220890 -0.284707
v 0.229044 -0.075162 -0.284707
v 0.229044 0.327269 0.132777
v 0.185561 -0.075162 0.089294
v 0.185561 -0.075162 -0.284707
v 0.229044 -0.220890 -0.284707
v 0.229044 -0.430033 -0.284707
v 0.229044 -0.050773 0.089294
v 0.207302 -0.050773 0.089294
v 0.185561 -0.050773 0.089294
v 0.229044 -0.264374 0.089294
v 0.185561 -0.220890 0.089294
v 0.185561 -0.264374 -0.284707
v 0.229044 -0.430033 -0.328190
v 0.229044 -0.075162 -0.328190
v 0.229044 0.116631 0.089294
v 0.185561 -0.075162 0.111036
v 0.229044 -0.430033 0.089294
v 0.185561 -0.264374 0.089294
v 0.229044 -0.264374 -0.284707
v 0.185561 -0.430033 0.132777
v -0.188440 -0.075162 0.111036
v 0.185561 -0.430033 -0.284707
v 0.229044 -0.050773 -0.328190
v -0.231923 -0.050773 -0.328190
v 0.185561 0.116631 0.089294
v 0.229044 0.327269 0.089294
v 0.185561 -0.050773 0.111036
v 0.185561 -0.103211 0.111036
v 0.229044 -0.430033 0.132777
v 0.185561 -0.075162 -0.306448
v 0.185561 -0.103211 -0.328190
v 0.185561 -0.430033 -0.328190
v 0.185561 0.327269 0.089294
v 0.229044 0.116631 0.080758
v 0.185561 -0.103211 0.132777
v 0.185561 -0.430033 0.089294
v -0.188440 -0.075162 -0.306448
v 0.185561 -0.103211 -0.306448
v 0.185561 -0.075162 -0.328190
v 0.185561 -0.050773 0.132777
v 0.229044 0.327269 0.080758
v 0.185561 0.327269 0.132777
v -0.188440 -0.103211 0.111036
v -0.188440 -0.103211 0.132777
v -0.188440 -0.075162 0.089294
v -0.188440 -0.103211 -0.306448
v -0.188440 -0.075162 -0.328190
v 0.156207 0.116631 0.102901
v 0.177025 0.116631 0.080758
v -0.188440 -0.050773 0.089294
v 0.177025 0.327269 0.080758
v 0.185561 -0.075162 0.132777
v -0.188440 -0.050773 0.132777
v -0.188440 -0.430033 0.089294
v -0.188440 -0.050773 0.111036
v -0.188440 -0.220890 0.089294
v -0.188440 -0.075162 -0.284707
v -0.188440 -0.103211 -0.328190
v -0.231923 -0.075162 -0.328190
v 0.156207 0.327269 0.102901
v -0.231923 -0.050773 0.089294
v -0.188440 -0.075162 0.132777
v -0.188440 -0.430033 0.132777
v -0.188440 -0.264374 0.089294
v -0.210181 -0.103211 0.089294
v -0.210181 -0.075162 0.089294
v -0.188440 -0.430033 -0.284707
v -0.231923 -0.075162 -0.284707
v 0.125872 0.116631 0.114152
v 0.148981 0.116631 0.093632
v 0.148981 0.327269 0.093632
v -0.231923 0.116631 0.089294
v -0.231923 -0.430033 0.132777
v -0.188440 0.327269 0.132777
v -0.231923 -0.264374 0.089294
v -0.231923 0.327269 0.132777
v -0.231923 -0.220890 0.089294
v -0.188440 -0.264374 -0.284707
v -0.231923 -0.103211 0.089294
v -0.210181 -0.075162 -0.284707
v -0.188440 -0.430033 -0.328190
v -0.188440 -0.220890 -0.284707
v -0.231923 -0.430033 -0.284707
v 0.125872 0.327269 0.114152
v -0.231923 -0.075162 0.089294
v -0.188440 0.116631 0.089294
v -0.231923 -0.430033 0.089294
v -0.231923 -0.220890 -0.284707
v -0.210181 -0.103211 -0.284707
v -0.231923 -0.430033 -0.328190
v -0.231923 -0.264374 -0.284707
v 0.094744 0.116631 0.122975
v 0.120017 0.116631 0.104275
v 0.120017 0.327269 0.104275
v -0.231923 0.116631 0.080758
v -0.231923 0.327269 0.089294
v -0.188440 0.327269 0.089294
v -0.231923 -0.103211 -0.284707
v 0.094744 0.327269 0.122975
v -0.179904 0.116631 0.080758
v -0.231923 0.327269 0.080758
v -0.159086 0.327269 0.102901
v 0.063017 0.116631 0.129318
v 0.090309 0.116631 0.112621
v 0.090309 0.327269 0.112621
v -0.159086 0.116631 0.102901
v -0.179904 0.327269 0.080758
v 0.063017 0.327269 0.129318
v -0.151860 0.116631 0.093632
v -0.128751 0.327269 0.114152
v -0.151860 0.327269 0.093632
v 0.030890 0.116631 0.133139
v 0.060040 0.116631 0.118619
v 0.060040 0.327269 0.118619
v -0.128751 0.116631 0.114152
v 0.030890 0.327269 0.133139
v -0.122896 0.116631 0.104275
v -0.097623 0.327269 0.122975
v -0.122896 0.327269 0.104275
v -0.001440 0.116631 0.134415
v 0.029394 0.116631 0.122233
v 0.029394 0.327269 0.122233
v -0.097623 0.116631 0.122975
v -0.001440 0.327269 0.134415
v -0.093188 0.116631 0.112621
v -0.065896 0.116631 0.129318
v -0.093188 0.327269 0.112621
v -0.033769 0.116631 0.133139
v -0.001440 0.116631 0.123440
v -0.001440 0.327269 0.123440
v -0.065896 0.327269 0.129318
v -0.033769 0.327269 0.133139
v -0.032274 0.116631 0.122233
v -0.062919 0.116631 0.118619
v -0.032274 0.327269 0.122233
v -0.062919 0.327269 0.118619

# 0 UV coordinates

# 54 vertex normals
vn 0 -0.0254 0
vn 0 0.0254 0
vn 0.0254 -0 -0
vn -0.0254 0 0
vn 0 0 -0.0254
vn 0 0 0.0254
vn 0.0106823 0 0.0230445
vn 0.00976485 0 0.023448
vn -0.0106823 0 -0.0230445
vn -0.00976485 0 -0.023448
vn 0.00788584 0 0.0241448
vn -0.00788584 0 -0.0241448
vn -0.0105973 0 -0.0230837
vn -0.00968629 0 -0.0234806
vn 0.0105973 0 0.0230837
vn 0.00968629 0 0.0234806
vn 0.00595775 0 0.0246914
vn -0.00595775 0 -0.0246914
vn -0.00782114 0 -0.0241659
vn 0.00782114 0 0.0241659
vn -0.0106823 0 0.0230445
vn -0.00976485 0 0.023448
vn 0.0106823 -0 -0.0230445
vn 0.00976485 0 -0.023448
vn 0.00399255 0 0.0250843
vn -0.00399255 0 -0.0250843
vn -0.00590812 0 -0.0247033
vn 0.00590812 0 0.0247033
vn -0.00788584 0 0.0241448
vn 0.00788584 0 -0.0241448
vn 0.00200251 0 0.0253209
vn -0.00200251 0 -0.0253209
vn -0.00395895 0 -0.0250896
vn 0.00395895 0 0.0250896
vn 0.0105973 -0 -0.0230837
vn 0.00968629 -0 -0.0234806
vn -0.0105973 0 0.0230837
vn -0.00968629 0 0.0234806
vn -0.00595775 0 0.0246914
vn 0.00595775 0 -0.0246914
vn 0.00782114 0 -0.0241659
vn -0.00782114 0 0.0241659
vn -0.00198554 0 -0.0253223
vn 0.00198554 0 0.0253223
vn -0.00399255 0 0.0250843
vn 0.00399255 0 -0.0250843
vn 0.00590812 0 -0.0247033
vn -0.00590812 0 0.0247033
vn -0.00200251 0 0.0253209
vn 0.00200251 0 -0.0253209
vn 0.00395895 0 -0.0250896
vn -0.00395895 0 0.0250896
vn 0.00198554 0 -0.0253223
vn -0.00198554 0 0.0253223

# Mesh 'mesh1_mesh1-geometry' with 666 faces
g mesh1_mesh1-geometry
usemtl material_0_24
f  1//1 2//1 3//1
f  2//1 1//1 4//1
f  3//2 2//2 1//2
f  4//2 1//2 2//2
f  2//3 5//3 3//3
f  3//4 5//4 2//4
f  6//5 3//5 1//5
f  1//6 3//6 6//6
f  3//5 7//5 1//5
f  1//6 7//6 3//6
f  1//4 8//4 4//4
f  4//3 8//3 1//3
f  9//6 2//6 4//6
f  4//5 2//5 9//5
f  5//3 2//3 10//3
f  10//4 2//4 5//4
f  3//5 6//5 5//5
f  5//6 6//6 3//6
f  5//3 11//3 3//3
f  3//4 11//4 5//4
f  8//4 1//4 6//4
f  6//3 1//3 8//3
f  1//5 12//5 6//5
f  6//6 12//6 1//6
f  3//3 11//3 7//3
f  7//4 11//4 3//4
f  7//5 12//5 1//5
f  1//6 12//6 7//6
f  13//6 4//6 8//6
f  8//5 4//5 13//5
f  2//6 9//6 14//6
f  14//5 9//5 2//5
f  9//6 4//6 13//6
f  13//5 4//5 9//5
f  15//3 10//3 2//3
f  2//4 10//4 15//4
f  10//3 16//3 5//3
f  5//4 16//4 10//4
f  5//5 6//5 17//5
f  17//6 6//6 5//6
f  16//3 11//3 5//3
f  5//4 11//4 16//4
f  12//1 8//1 6//1
f  6//2 8//2 12//2
f  18//5 6//5 12//5
f  12//6 6//6 18//6
f  7//3 11//3 19//3
f  19//4 11//4 7//4
f  12//5 7//5 20//5
f  20//6 7//6 12//6
f  8//1 12//1 13//1
f  13//2 12//2 8//2
f  9//2 7//2 14//2
f  14//1 7//1 9//1
f  21//6 14//6 9//6
f  9//5 14//5 21//5
f  15//3 2//3 14//3
f  14//4 2//4 15//4
f  13//4 21//4 9//4
f  9//3 21//3 13//3
f  22//3 10//3 15//3
f  15//4 10//4 22//4
f  23//3 16//3 10//3
f  10//4 16//4 23//4
f  5//5 17//5 16//5
f  16//6 17//6 5//6
f  6//5 18//5 17//5
f  17//6 18//6 6//6
f  24//3 11//3 16//3
f  16//4 11//4 24//4
f  25//4 18//4 12//4
f  12//3 18//3 25//3
f  19//3 11//3 26//3
f  26//4 11//4 19//4
f  27//5 7//5 19//5
f  19//6 7//6 27//6
f  28//3 7//3 19//3
f  19//4 7//4 28//4
f  7//2 9//2 20//2
f  20//1 9//1 7//1
f  7//5 27//5 20//5
f  20//6 27//6 7//6
f  20//4 29//4 12//4
f  12//3 29//3 20//3
f  12//1 30//1 13//1
f  13//2 30//2 12//2
f  7//3 28//3 14//3
f  14//4 28//4 7//4
f  14//6 21//6 28//6
f  28//5 21//5 14//5
f  27//4 9//4 21//4
f  21//3 9//3 27//3
f  15//3 14//3 28//3
f  28//4 14//4 15//4
f  13//4 31//4 21//4
f  21//3 31//3 13//3
f  10//3 22//3 23//3
f  23//4 22//4 10//4
f  31//1 22//1 15//1
f  15//2 22//2 31//2
f  16//3 23//3 32//3
f  32//4 23//4 16//4
f  32//2 17//2 16//2
f  16//1 17//1 32//1
f  17//5 24//5 16//5
f  16//6 24//6 17//6
f  17//2 33//2 18//2
f  18//1 33//1 17//1
f  34//5 17//5 18//5
f  18//6 17//6 34//6
f  11//3 24//3 35//3
f  35//4 24//4 11//4
f  18//4 25//4 36//4
f  36//3 25//3 18//3
f  25//4 12//4 37//4
f  37//3 12//3 25//3
f  30//1 12//1 25//1
f  25//2 12//2 30//2
f  26//3 11//3 38//3
f  38//4 11//4 26//4
f  26//5 27//5 19//5
f  19//6 27//6 26//6
f  27//1 28//1 19//1
f  19//2 28//2 27//2
f  9//4 27//4 20//4
f  20//3 27//3 9//3
f  27//4 29//4 20//4
f  20//3 29//3 27//3
f  12//4 29//4 37//4
f  37//3 29//3 12//3
f  13//1 30//1 39//1
f  39//2 30//2 13//2
f  28//1 27//1 21//1
f  21//2 27//2 28//2
f  31//6 28//6 21//6
f  21//5 28//5 31//5
f  28//6 31//6 15//6
f  15//5 31//5 28//5
f  39//4 31//4 13//4
f  13//3 31//3 39//3
f  22//5 40//5 23//5
f  23//6 40//6 22//6
f  22//1 31//1 41//1
f  41//2 31//2 22//2
f  23//5 33//5 32//5
f  32//6 33//6 23//6
f  17//2 32//2 33//2
f  33//1 32//1 17//1
f  24//5 17//5 34//5
f  34//6 17//6 24//6
f  18//2 33//2 36//2
f  36//1 33//1 18//1
f  36//4 34//4 18//4
f  18//3 34//3 36//3
f  24//5 42//5 35//5
f  35//6 42//6 24//6
f  43//3 35//3 24//3
f  24//4 35//4 43//4
f  42//2 11//2 35//2
f  35//1 11//1 42//1
f  25//4 44//4 36//4
f  36//3 44//3 25//3
f  37//5 30//5 25//5
f  25//6 30//6 37//6
f  44//4 25//4 37//4
f  37//3 25//3 44//3
f  11//6 29//6 38//6
f  38//5 29//5 11//5
f  29//1 26//1 38//1
f  38//2 26//2 29//2
f  27//5 26//5 45//5
f  45//6 26//6 27//6
f  29//4 27//4 45//4
f  45//3 27//3 29//3
f  37//4 29//4 44//4
f  44//3 29//3 37//3
f  39//1 30//1 46//1
f  46//2 30//2 39//2
f  47//4 31//4 39//4
f  39//3 31//3 47//3
f  40//5 22//5 41//5
f  41//6 22//6 40//6
f  23//5 40//5 48//5
f  48//6 40//6 23//6
f  31//4 40//4 41//4
f  41//3 40//3 31//3
f  48//5 33//5 23//5
f  23//6 33//6 48//6
f  42//5 24//5 34//5
f  34//6 24//6 42//6
f  34//1 43//1 24//1
f  24//2 43//2 34//2
f  36//2 33//2 49//2
f  49//1 33//1 36//1
f  34//4 36//4 42//4
f  42//3 36//3 34//3
f  50//2 42//2 35//2
f  35//1 42//1 50//1
f  35//3 43//3 50//3
f  50//4 43//4 35//4
f  11//2 42//2 51//2
f  51//1 42//1 11//1
f  36//4 44//4 49//4
f  49//3 44//3 36//3
f  30//5 37//5 52//5
f  52//6 37//6 30//6
f  53//1 37//1 44//1
f  44//2 37//2 53//2
f  29//6 11//6 44//6
f  44//5 11//5 29//5
f  26//1 29//1 45//1
f  45//2 29//2 26//2
f  46//1 30//1 54//1
f  54//2 30//2 46//2
f  55//6 39//6 46//6
f  46//5 39//5 55//5
f  40//4 31//4 47//4
f  47//3 31//3 40//3
f  39//6 55//6 47//6
f  47//5 55//5 39//5
f  40//5 56//5 48//5
f  48//6 56//6 40//6
f  56//5 33//5 48//5
f  48//6 33//6 56//6
f  42//7 57//8 34//7
f  34//9 57//10 42//9
f  43//1 34//1 58//1
f  58//2 34//2 43//2
f  49//2 33//2 59//2
f  59//1 33//1 49//1
f  51//4 36//4 49//4
f  49//3 36//3 51//3
f  42//4 36//4 51//4
f  51//3 36//3 42//3
f  42//2 50//2 60//2
f  60//1 50//1 42//1
f  43//5 60//5 50//5
f  50//6 60//6 43//6
f  49//6 11//6 51//6
f  51//5 11//5 49//5
f  49//4 44//4 61//4
f  61//3 44//3 49//3
f  37//1 53//1 52//1
f  52//2 53//2 37//2
f  30//3 62//3 52//3
f  52//4 62//4 30//4
f  63//3 30//3 52//3
f  52//4 30//4 63//4
f  61//6 53//6 44//6
f  44//5 53//5 61//5
f  44//6 11//6 61//6
f  61//5 11//5 44//5
f  54//3 64//3 30//3
f  30//4 64//4 54//4
f  30//3 65//3 54//3
f  54//4 65//4 30//4
f  46//1 54//1 66//1
f  66//2 54//2 46//2
f  66//3 55//3 46//3
f  46//4 55//4 66//4
f  55//1 40//1 47//1
f  47//2 40//2 55//2
f  56//5 40//5 67//5
f  67//6 40//6 56//6
f  33//5 56//5 68//5
f  68//6 56//6 33//6
f  57//8 42//7 69//8
f  69//10 42//9 57//10
f  58//1 34//1 57//1
f  57//2 34//2 58//2
f  60//5 43//5 58//5
f  58//6 43//6 60//6
f  59//2 33//2 70//2
f  70//1 33//1 59//1
f  59//2 62//2 49//2
f  49//1 62//1 59//1
f  42//2 60//2 69//2
f  69//1 60//1 42//1
f  61//6 11//6 49//6
f  49//5 11//5 61//5
f  49//6 71//6 61//6
f  61//5 71//5 49//5
f  52//3 62//3 53//3
f  53//4 62//4 52//4
f  72//3 52//3 53//3
f  53//4 52//4 72//4
f  62//3 30//3 64//3
f  64//4 30//4 62//4
f  73//3 30//3 63//3
f  63//4 30//4 73//4
f  63//3 52//3 72//3
f  72//4 52//4 63//4
f  53//6 61//6 71//6
f  71//5 61//5 53//5
f  64//3 54//3 59//3
f  59//4 54//4 64//4
f  65//3 30//3 73//3
f  73//4 30//4 65//4
f  65//5 74//5 54//5
f  54//6 74//6 65//6
f  75//1 66//1 54//1
f  54//2 66//2 75//2
f  76//3 55//3 66//3
f  66//4 55//4 76//4
f  40//1 55//1 67//1
f  67//2 55//2 40//2
f  67//5 68//5 56//5
f  56//6 68//6 67//6
f  77//4 33//4 68//4
f  68//3 33//3 77//3
f  69//8 78//11 57//8
f  57//10 78//12 69//10
f  58//1 57//1 79//1
f  79//2 57//2 58//2
f  58//13 80//14 60//13
f  60//15 80//16 58//15
f  33//4 77//4 70//4
f  70//3 77//3 33//3
f  54//5 70//5 59//5
f  59//6 70//6 54//6
f  81//5 59//5 70//5
f  70//6 59//6 81//6
f  62//2 59//2 64//2
f  64//1 59//1 62//1
f  71//6 49//6 62//6
f  62//5 49//5 71//5
f  69//2 60//2 80//2
f  80//1 60//1 69//1
f  53//3 62//3 71//3
f  71//4 62//4 53//4
f  53//6 82//6 72//6
f  72//5 82//5 53//5
f  64//3 83//3 62//3
f  62//4 83//4 64//4
f  63//5 84//5 73//5
f  73//6 84//6 63//6
f  82//1 63//1 72//1
f  72//2 63//2 82//2
f  85//6 53//6 71//6
f  71//5 53//5 85//5
f  59//3 83//3 64//3
f  64//4 83//4 59//4
f  73//5 86//5 65//5
f  65//6 86//6 73//6
f  87//3 65//3 73//3
f  73//4 65//4 87//4
f  65//5 88//5 74//5
f  74//6 88//6 65//6
f  54//5 74//5 75//5
f  75//6 74//6 54//6
f  66//1 75//1 89//1
f  89//2 75//2 66//2
f  75//5 70//5 54//5
f  54//6 70//6 75//6
f  90//3 55//3 76//3
f  76//4 55//4 90//4
f  76//3 66//3 91//3
f  91//4 66//4 76//4
f  55//3 90//3 67//3
f  67//4 90//4 55//4
f  90//5 68//5 67//5
f  67//6 68//6 90//6
f  68//4 92//4 77//4
f  77//3 92//3 68//3
f  78//11 69//8 93//11
f  93//12 69//10 78//12
f  79//1 57//1 78//1
f  78//2 57//2 79//2
f  80//14 58//13 79//14
f  79//16 58//15 80//16
f  70//4 77//4 94//4
f  94//3 77//3 70//3
f  59//5 81//5 95//5
f  95//6 81//6 59//6
f  70//4 82//4 81//4
f  81//3 82//3 70//3
f  85//6 71//6 62//6
f  62//5 71//5 85//5
f  69//2 80//2 93//2
f  93//1 80//1 69//1
f  82//6 53//6 85//6
f  85//5 53//5 82//5
f  85//6 62//6 83//6
f  83//5 62//5 85//5
f  84//5 63//5 96//5
f  96//6 63//6 84//6
f  84//1 87//1 73//1
f  73//2 87//2 84//2
f  86//5 73//5 84//5
f  84//6 73//6 86//6
f  63//1 82//1 96//1
f  96//2 82//2 63//2
f  95//3 83//3 59//3
f  59//4 83//4 95//4
f  65//2 97//2 86//2
f  86//1 97//1 65//1
f  88//5 65//5 86//5
f  86//6 65//6 88//6
f  65//3 87//3 91//3
f  91//4 87//4 65//4
f  94//5 74//5 88//5
f  88//6 74//6 94//6
f  88//1 98//1 74//1
f  74//2 98//2 88//2
f  74//5 94//5 75//5
f  75//6 94//6 74//6
f  98//3 75//3 74//3
f  74//4 75//4 98//4
f  75//3 98//3 89//3
f  89//4 98//4 75//4
f  98//6 66//6 89//6
f  89//5 66//5 98//5
f  75//5 94//5 70//5
f  70//6 94//6 75//6
f  92//1 90//1 76//1
f  76//2 90//2 92//2
f  66//6 97//6 91//6
f  91//5 97//5 66//5
f  76//3 91//3 87//3
f  87//4 91//4 76//4
f  68//5 90//5 99//5
f  99//6 90//6 68//6
f  92//4 68//4 99//4
f  99//3 68//3 92//3
f  77//4 92//4 100//4
f  100//3 92//3 77//3
f  93//11 101//17 78//11
f  78//12 101//18 93//12
f  79//1 78//1 102//1
f  102//2 78//2 79//2
f  79//14 103//19 80//14
f  80//16 103//20 79//16
f  77//4 88//4 94//4
f  94//3 88//3 77//3
f  94//4 82//4 70//4
f  70//3 82//3 94//3
f  104//1 95//1 81//1
f  81//2 95//2 104//2
f  105//5 95//5 81//5
f  81//6 95//6 105//6
f  81//4 82//4 105//4
f  105//3 82//3 81//3
f  93//2 80//2 103//2
f  103//1 80//1 93//1
f  105//4 82//4 85//4
f  85//3 82//3 105//3
f  83//2 105//2 85//2
f  85//1 105//1 83//1
f  82//4 84//4 96//4
f  96//3 84//3 82//3
f  87//1 84//1 100//1
f  100//2 84//2 87//2
f  84//4 82//4 86//4
f  86//3 82//3 84//3
f  97//4 84//4 86//4
f  86//3 84//3 97//3
f  83//3 95//3 106//3
f  106//4 95//4 83//4
f  97//2 65//2 91//2
f  91//1 65//1 97//1
f  86//4 82//4 88//4
f  88//3 82//3 86//3
f  91//6 100//6 87//6
f  87//5 100//5 91//5
f  88//4 82//4 94//4
f  94//3 82//3 88//3
f  98//1 88//1 107//1
f  107//2 88//2 98//2
f  97//6 66//6 98//6
f  98//5 66//5 97//5
f  90//1 92//1 99//1
f  99//2 92//2 90//2
f  87//6 92//6 76//6
f  76//5 92//5 87//5
f  100//6 91//6 97//6
f  97//5 91//5 100//5
f  92//6 87//6 100//6
f  100//5 87//5 92//5
f  77//4 100//4 97//4
f  97//3 100//3 77//3
f  101//17 93//11 108//17
f  108//18 93//12 101//18
f  102//1 78//1 101//1
f  101//2 78//2 102//2
f  103//19 79//14 102//19
f  102//20 79//16 103//20
f  88//4 77//4 107//4
f  107//3 77//3 88//3
f  109//1 95//1 104//1
f  104//2 95//2 109//2
f  81//4 110//4 104//4
f  104//3 110//3 81//3
f  95//5 105//5 106//5
f  106//6 105//6 95//6
f  110//4 81//4 105//4
f  105//3 81//3 110//3
f  93//2 103//2 108//2
f  108//1 103//1 93//1
f  105//2 83//2 106//2
f  106//1 83//1 105//1
f  84//4 97//4 100//4
f  100//3 97//3 84//3
f  95//21 111//22 106//21
f  106//23 111//24 95//23
f  107//6 97//6 98//6
f  98//5 97//5 107//5
f  77//4 97//4 107//4
f  107//3 97//3 77//3
f  108//17 112//25 101//17
f  101//18 112//26 108//18
f  102//1 101//1 113//1
f  113//2 101//2 102//2
f  102//19 114//27 103//19
f  103//20 114//28 102//20
f  109//1 115//1 95//1
f  95//2 115//2 109//2
f  110//5 109//5 104//5
f  104//6 109//6 110//6
f  106//2 110//2 105//2
f  105//1 110//1 106//1
f  108//2 103//2 114//2
f  114//1 103//1 108//1
f  111//22 95//21 115//22
f  115//24 95//23 111//24
f  111//2 116//2 106//2
f  106//1 116//1 111//1
f  112//25 108//17 117//25
f  117//26 108//18 112//26
f  113//1 101//1 112//1
f  112//2 101//2 113//2
f  114//27 102//19 113//27
f  113//28 102//20 114//28
f  118//1 115//1 109//1
f  109//2 115//2 118//2
f  109//5 110//5 116//5
f  116//6 110//6 109//6
f  106//2 116//2 110//2
f  110//1 116//1 106//1
f  108//2 114//2 117//2
f  117//1 114//1 108//1
f  115//22 119//29 111//22
f  111//24 119//30 115//24
f  111//2 120//2 116//2
f  116//1 120//1 111//1
f  117//25 121//31 112//25
f  112//26 121//32 117//26
f  113//1 112//1 122//1
f  122//2 112//2 113//2
f  113//27 123//33 114//27
f  114//28 123//34 113//28
f  118//1 124//1 115//1
f  115//2 124//2 118//2
f  116//35 118//36 109//35
f  109//37 118//38 116//37
f  117//2 114//2 123//2
f  123//1 114//1 117//1
f  119//29 115//22 124//29
f  124//30 115//24 119//30
f  119//2 120//2 111//2
f  111//1 120//1 119//1
f  118//36 116//35 120//36
f  120//38 116//37 118//38
f  121//31 117//25 125//31
f  125//32 117//26 121//32
f  122//1 112//1 121//1
f  121//2 112//2 122//2
f  123//33 113//27 122//33
f  122//34 113//28 123//34
f  126//1 124//1 118//1
f  118//2 124//2 126//2
f  117//2 123//2 125//2
f  125//1 123//1 117//1
f  124//29 127//39 119//29
f  119//30 127//40 124//30
f  119//2 128//2 120//2
f  120//1 128//1 119//1
f  120//36 126//41 118//36
f  118//38 126//42 120//38
f  125//31 129//6 121//31
f  121//32 129//5 125//32
f  122//1 121//1 130//1
f  130//2 121//2 122//2
f  122//33 131//43 123//33
f  123//34 131//44 122//34
f  126//1 132//1 124//1
f  124//2 132//2 126//2
f  125//2 123//2 131//2
f  131//1 123//1 125//1
f  127//39 124//29 132//39
f  132//40 124//30 127//40
f  127//2 128//2 119//2
f  119//1 128//1 127//1
f  126//41 120//36 128//41
f  128//42 120//38 126//42
f  129//6 125//31 133//6
f  133//5 125//32 129//5
f  130//1 121//1 129//1
f  129//2 121//2 130//2
f  131//43 122//33 130//43
f  130//44 122//34 131//44
f  134//1 132//1 126//1
f  126//2 132//2 134//2
f  125//2 131//2 133//2
f  133//1 131//1 125//1
f  135//45 127//39 132//39
f  132//40 127//40 135//46
f  127//2 136//2 128//2
f  128//1 136//1 127//1
f  128//41 134//47 126//41
f  126//42 134//48 128//42
f  133//6 137//49 129//6
f  129//5 137//50 133//5
f  130//1 129//1 138//1
f  138//2 129//2 130//2
f  130//43 139//5 131//43
f  131//44 139//6 130//44
f  134//1 135//1 132//1
f  132//2 135//2 134//2
f  133//2 131//2 139//2
f  139//1 131//1 133//1
f  127//39 135//45 140//45
f  140//46 135//46 127//40
f  140//2 136//2 127//2
f  127//1 136//1 140//1
f  134//47 128//41 136//47
f  136//48 128//42 134//48
f  137//49 133//6 141//49
f  141//50 133//5 137//50
f  142//1 129//1 137//1
f  137//2 129//2 142//2
f  138//1 129//1 142//1
f  142//2 129//2 138//2
f  139//5 130//43 138//5
f  138//6 130//44 139//6
f  143//1 135//1 134//1
f  134//2 135//2 143//2
f  133//2 139//2 144//2
f  144//1 139//1 133//1
f  135//45 141//49 140//45
f  140//46 141//50 135//46
f  140//2 145//2 136//2
f  136//1 145//1 140//1
f  136//47 143//51 134//47
f  134//48 143//52 136//48
f  133//2 144//2 141//2
f  141//1 144//1 133//1
f  141//49 135//45 137//49
f  137//50 135//46 141//50
f  142//1 137//1 143//1
f  143//2 137//2 142//2
f  144//53 138//5 142//53
f  142//54 138//6 144//54
f  138//5 144//53 139//5
f  139//6 144//54 138//6
f  143//1 137//1 135//1
f  135//2 137//2 143//2
f  141//2 145//2 140//2
f  140//1 145//1 141//1
f  143//51 136//47 145//51
f  145//52 136//48 143//52
f  141//2 144//2 145//2
f  145//1 144//1 141//1
f  145//51 142//53 143//51
f  143//52 142//54 145//52
f  142//53 145//51 144//53
f  144//54 145//52 142//54

# Mesh 'mesh2_mesh2-geometry' with 218 faces
g mesh2_mesh2-geometry
usemtl material_0_0
l  100 87
l  100 92
l  97 100
l  100 84
l  87 76
l  87 73
l  91 87
l  76 92
l  92 99
l  91 97
l  107 97
l  97 86
l  73 84
l  84 96
l  86 84
l  90 76
l  73 63
l  65 73
l  66 91
l  91 65
l  99 90
l  99 68
l  98 107
l  77 107
l  107 88
l  65 86
l  86 88
l  96 82
l  63 96
l  67 90
l  63 72
l  65 54
l  46 66
l  66 89
l  77 68
l  68 33
l  68 56
l  89 98
l  98 74
l  77 94
l  74 88
l  88 94
l  85 82
l  82 72
l  67 40
l  67 55
l  67 56
l  53 72
l  30 54
l  54 59
l  54 75
l  39 46
l  46 55
l  89 75
l  33 70
l  33 32
l  56 48
l  75 74
l  94 70
l  85 83
l  105 85
l  40 47
l  40 41
l  40 48
l  47 55
l  53 52
l  44 53
l  71 53
l  30 25
l  30 52
l  30 64
l  59 64
l  59 70
l  59 95
l  39 13
l  39 47
l  70 81
l  32 16
l  23 32
l  48 23
l  62 83
l  106 83
l  106 105
l  81 105
l  110 105
l  41 31
l  41 22
l  52 37
l  37 44
l  61 44
l  44 29
l  62 71
l  61 71
l  25 37
l  25 36
l  12 25
l  64 62
l  95 81
l  115 95
l  95 106
l  13 8
l  13 9
l  104 81
l  17 16
l  5 16
l  16 24
l  22 23
l  23 10
l  49 62
l  111 106
l  104 110
l  116 110
l  31 15
l  21 31
l  22 15
l  49 61
l  45 29
l  29 38
l  36 49
l  18 36
l  6 12
l  12 18
l  20 12
l  124 115
l  6 8
l  8 4
l  14 9
l  9 20
l  9 21
l  109 104
l  6 17
l  18 17
l  3 5
l  10 5
l  24 35
l  34 24
l  24 43
l  2 10
l  49 51
l  119 111
l  116 109
l  120 116
l  28 15
l  21 28
l  21 27
l  27 45
l  26 45
l  11 38
l  26 38
l  18 34
l  1 6
l  20 7
l  20 27
l  132 124
l  1 4
l  4 2
l  2 14
l  14 7
l  14 28
l  118 109
l  3 1
l  2 3
l  7 3
l  35 11
l  42 35
l  35 50
l  34 57
l  34 42
l  43 50
l  43 58
l  11 51
l  42 51
l  127 119
l  128 120
l  28 19
l  19 27
l  19 26
l  7 19
l  135 132
l  126 118
l  42 69
l  50 60
l  57 78
l  58 79
l  60 58
l  140 127
l  136 128
l  137 135
l  134 126
l  69 93
l  60 80
l  78 101
l  79 102
l  141 140
l  145 136
l  129 137
l  143 134
l  93 108
l  80 103
l  101 112
l  102 113
l  133 141
l  144 145
l  121 129
l  142 143
l  108 117
l  103 114
l  112 121
l  113 122
l  125 133
l  139 144
l  138 142
l  117 125
l  114 123
l  122 130
l  131 139
l  130 138
l  123 131

